<svg width="11" height="76" viewBox="0 0 11 76" fill="none" xmlns="http://www.w3.org/2000/svg">
<path d="M0.617732 69.5176H1.65373L1.65373 73.7596H4.94373V70.3156H5.97973V73.7596H10.3757V75.0336H0.617732L0.617732 69.5176ZM10.4737 63.5549C10.4737 64.4603 10.2637 65.2863 9.84373 66.0329C9.4144 66.7796 8.82173 67.3723 8.06573 67.8109C7.3004 68.2403 6.44173 68.4549 5.48973 68.4549C4.53773 68.4549 3.68373 68.2403 2.92773 67.8109C2.1624 67.3723 1.56973 66.7796 1.14973 66.0329C0.720399 65.2863 0.505732 64.4603 0.505732 63.5549C0.505732 62.6403 0.720399 61.8096 1.14973 61.0629C1.56973 60.3163 2.15773 59.7283 2.91373 59.2989C3.66973 58.8696 4.5284 58.6549 5.48973 58.6549C6.45107 58.6549 7.30973 58.8696 8.06573 59.2989C8.82173 59.7283 9.4144 60.3163 9.84373 61.0629C10.2637 61.8096 10.4737 62.6403 10.4737 63.5549ZM9.36773 63.5549C9.36773 62.8736 9.20907 62.2623 8.89173 61.7209C8.5744 61.1703 8.12173 60.7409 7.53373 60.4329C6.94573 60.1156 6.2644 59.9569 5.48973 59.9569C4.70573 59.9569 4.0244 60.1156 3.44573 60.4329C2.85773 60.7409 2.40507 61.1656 2.08773 61.7069C1.7704 62.2483 1.61173 62.8643 1.61173 63.5549C1.61173 64.2456 1.7704 64.8616 2.08773 65.4029C2.40507 65.9443 2.85773 66.3736 3.44573 66.6909C4.0244 66.9989 4.70573 67.1529 5.48973 67.1529C6.2644 67.1529 6.94573 66.9989 7.53373 66.6909C8.12173 66.3736 8.5744 65.9443 8.89173 65.4029C9.20907 64.8523 9.36773 64.2363 9.36773 63.5549ZM9.33973 55.6991V52.2831H10.3757V56.9731H0.617732V55.6991H9.33973ZM9.33973 49.6561V46.2401H10.3757V50.9301H0.617732V49.6561H9.33973ZM10.4737 40.4631C10.4737 41.3685 10.2637 42.1945 9.84373 42.9411C9.4144 43.6878 8.82173 44.2805 8.06573 44.7191C7.3004 45.1485 6.44173 45.3631 5.48973 45.3631C4.53773 45.3631 3.68373 45.1485 2.92773 44.7191C2.1624 44.2805 1.56973 43.6878 1.14973 42.9411C0.720399 42.1945 0.505732 41.3685 0.505732 40.4631C0.505732 39.5485 0.720399 38.7178 1.14973 37.9711C1.56973 37.2245 2.15773 36.6365 2.91373 36.2071C3.66973 35.7778 4.5284 35.5631 5.48973 35.5631C6.45107 35.5631 7.30973 35.7778 8.06573 36.2071C8.82173 36.6365 9.4144 37.2245 9.84373 37.9711C10.2637 38.7178 10.4737 39.5485 10.4737 40.4631ZM9.36773 40.4631C9.36773 39.7818 9.20907 39.1705 8.89173 38.6291C8.5744 38.0785 8.12173 37.6491 7.53373 37.3411C6.94573 37.0238 6.2644 36.8651 5.48973 36.8651C4.70573 36.8651 4.0244 37.0238 3.44573 37.3411C2.85773 37.6491 2.40507 38.0738 2.08773 38.6151C1.7704 39.1565 1.61173 39.7725 1.61173 40.4631C1.61173 41.1538 1.7704 41.7698 2.08773 42.3111C2.40507 42.8525 2.85773 43.2818 3.44573 43.5991C4.0244 43.9071 4.70573 44.0611 5.48973 44.0611C6.2644 44.0611 6.94573 43.9071 7.53373 43.5991C8.12173 43.2818 8.5744 42.8525 8.89173 42.3111C9.20907 41.7605 9.36773 41.1445 9.36773 40.4631ZM0.617732 21.6173L10.3757 24.4453V25.8733L2.52173 28.1413L10.3757 30.4933L10.3897 31.9073L0.617732 34.6373V33.2793L8.89173 31.1513L0.617732 28.7993V27.3713L8.86373 25.1313L0.617732 22.9893V21.6173ZM0.617732 15.2446H6.79173C7.65973 15.2446 8.30373 15.0346 8.72373 14.6146C9.14373 14.1853 9.35373 13.5926 9.35373 12.8366C9.35373 12.09 9.14373 11.5066 8.72373 11.0866C8.30373 10.6573 7.65973 10.4426 6.79173 10.4426H0.617732V9.16865H6.77773C7.58973 9.16865 8.27573 9.33198 8.83573 9.65865C9.3864 9.98532 9.79707 10.4286 10.0677 10.9886C10.3384 11.5393 10.4737 12.16 10.4737 12.8506C10.4737 13.5413 10.3384 14.1666 10.0677 14.7266C9.79707 15.2773 9.3864 15.716 8.83573 16.0426C8.27573 16.36 7.58973 16.5186 6.77773 16.5186H0.617732V15.2446ZM10.4737 3.94938C10.4737 4.59338 10.3617 5.17205 10.1377 5.68538C9.9044 6.18938 9.58707 6.58605 9.18573 6.87538C8.77507 7.16472 8.30373 7.31405 7.77173 7.32338V5.96538C8.22907 5.91872 8.6164 5.73205 8.93373 5.40538C9.24173 5.06938 9.39573 4.58405 9.39573 3.94938C9.39573 3.34272 9.2464 2.86672 8.94773 2.52138C8.63973 2.16672 8.24773 1.98938 7.77173 1.98938C7.3984 1.98938 7.09507 2.09205 6.86173 2.29738C6.6284 2.50272 6.45107 2.75938 6.32973 3.06738C6.2084 3.37538 6.07773 3.79072 5.93773 4.31338C5.76973 4.95738 5.60173 5.47538 5.43373 5.86738C5.26573 6.25005 5.0044 6.58138 4.64973 6.86138C4.28573 7.13205 3.8004 7.26738 3.19373 7.26738C2.66173 7.26738 2.1904 7.13205 1.77973 6.86138C1.36907 6.59072 1.05173 6.21272 0.827732 5.72738C0.603732 5.23272 0.491732 4.66805 0.491732 4.03338C0.491732 3.11872 0.720399 2.37205 1.17773 1.79338C1.63507 1.20538 2.24173 0.87405 2.99773 0.799384V2.19938C2.6244 2.24605 2.29773 2.44205 2.01773 2.78738C1.7284 3.13272 1.58373 3.59005 1.58373 4.15938C1.58373 4.69138 1.72373 5.12538 2.00373 5.46138C2.2744 5.79738 2.65707 5.96538 3.15173 5.96538C3.5064 5.96538 3.79573 5.86738 4.01973 5.67138C4.24373 5.46605 4.4164 5.21872 4.53773 4.92938C4.64973 4.63072 4.7804 4.21538 4.92973 3.68338C5.10707 3.03938 5.2844 2.52138 5.46173 2.12938C5.62973 1.73738 5.89573 1.40138 6.25973 1.12138C6.6144 0.841383 7.09973 0.701383 7.71573 0.701383C8.19173 0.701383 8.63973 0.827383 9.05973 1.07938C9.47973 1.33138 9.8204 1.70472 10.0817 2.19938C10.3431 2.69405 10.4737 3.27738 10.4737 3.94938Z" fill="black"/>
</svg>
